<?xml version="1.0" standalone="yes"?>
<svg xmlns="http://www.w3.org/2000/svg" width="500" height="500">
<path style="fill:#010101; stroke:none;" d="M0 0L0 500L500 500L500 0L0 0z"/>
<path style="fill:#62656b; stroke:none;" d="M249 131L251 133L249 131z"/>
<path style="fill:#84878e; stroke:none;" d="M249 132L239 151C253.997 147.43 258.88 165.072 265.269 176C274.769 192.249 283.722 208.822 293.352 225C300.067 236.282 304.963 246.059 318 251C306.352 223.022 287.374 196.157 272.011 170C265.009 158.079 258.927 141.626 249 132z"/>
<path style="fill:#62656b; stroke:none;" d="M248 133L249 134L248 133M251 134L252 135L251 134M247 135L248 136L247 135M252.333 135.667L252.667 136.333L252.333 135.667M246.333 136.667L246.667 137.333L246.333 136.667M253 137L254 138L253 137M245 138L246 139L245 138M254.333 138.667L254.667 139.333L254.333 138.667M244 140L245 141L244 140M255.333 140.667L255.667 141.333L255.333 140.667M243.333 141.667L243.667 142.333L243.333 141.667M256 142L257 143L256 142M242.333 143.667L242.667 144.333L242.333 143.667M257 144L259 147L257 144M241 145L242 146L241 145M240 147L241 148L240 147M259.333 147.667L259.667 148.333L259.333 147.667M239 148L240 149L239 148M260.333 149.667L260.667 150.333L260.333 149.667M239 151L279.719 223L296.634 250.972L318 252C313.604 247.79 307.501 245.542 303.529 240.896C287.091 221.669 277.273 194.567 264.089 173C257.73 162.599 253.759 146.638 239 151M261 151L262 152L261 151M262.333 152.667L262.667 153.333L262.333 152.667M263.333 154.667L263.667 155.333L263.333 154.667M264 156L265 157L264 156M265 158L266 159L265 158M266.333 159.667L266.667 160.333L266.333 159.667M267.333 161.667L267.667 162.333L267.333 161.667M268 163L269 164L268 163M269 165L270 166L269 165M270.333 166.667L270.667 167.333L270.333 166.667M271.333 168.667L271.667 169.333L271.333 168.667z"/>
<path style="fill:#337ca6; stroke:none;" d="M227 170L221 181L222 181L227 170z"/>
<path style="fill:#31a5e7; stroke:none;" d="M182 251C202.016 247.697 227.562 257.063 246.829 250.283C252.179 248.401 260.29 232.464 259.257 227C258.183 221.324 253.423 216.183 251 211L249 211L242 229C232.017 232.072 224.922 234.028 214 232L216 228L213 229L213 228C216.908 226.291 220.009 223.303 218 219L221 219C223.286 214.912 228.395 209.527 226 205L229 205C233.004 198.547 240.167 189.713 240 182C244.622 180.914 246.774 174.247 248 170C242.677 170 233.009 168.134 228.379 171.028C222.12 174.94 218.187 186.764 214.576 193C203.91 211.417 188.966 230.901 182 251z"/>
<path style="fill:#84878e; stroke:none;" d="M248 170L249 171L248 170z"/>
<path style="fill:#337ca6; stroke:none;" d="M249 170L250 171L249 170z"/>
<path style="fill:#84878e; stroke:none;" d="M254 170L255 171L254 170z"/>
<path style="fill:#62656b; stroke:none;" d="M272 170L273 171L272 170z"/>
<path style="fill:#337ca6; stroke:none;" d="M248 171L245 178L246 178L248 171z"/>
<path style="fill:#84878e; stroke:none;" d="M252 172L253 173L252 172z"/>
<path style="fill:#62656b; stroke:none;" d="M273 172L274 173L273 172M274.333 173.667L274.667 174.333L274.333 173.667z"/>
<path style="fill:#337ca6; stroke:none;" d="M244 175L245 176L244 175z"/>
<path style="fill:#62656b; stroke:none;" d="M275 175L276 176L275 175z"/>
<path style="fill:#337ca6; stroke:none;" d="M240 176L241 177L240 176z"/>
<path style="fill:#62656b; stroke:none;" d="M246 176L247 177L246 176M276 177L277 178L276 177z"/>
<path style="fill:#337ca6; stroke:none;" d="M242 178L243 179L242 178M244 178L240 182L241 185L244 178z"/>
<path style="fill:#62656b; stroke:none;" d="M277 179L278 180L277 179M278.333 180.667L278.667 181.333L278.333 180.667z"/>
<path style="fill:#337ca6; stroke:none;" d="M220 182L221 183L220 182z"/>
<path style="fill:#62656b; stroke:none;" d="M279 182L280 183L279 182z"/>
<path style="fill:#337ca6; stroke:none;" d="M219 183L220 184L219 183M231 183L231 184L234 185L231 183z"/>
<path style="fill:#62656b; stroke:none;" d="M242 183L243 184L242 183z"/>
<path style="fill:#337ca6; stroke:none;" d="M236 184L237 185L236 184M238.333 184.667L238.667 185.333L238.333 184.667z"/>
<path style="fill:#84878e; stroke:none;" d="M259 184L260 185L259 184z"/>
<path style="fill:#62656b; stroke:none;" d="M280 184L281 185L280 184z"/>
<path style="fill:#337ca6; stroke:none;" d="M218.333 185.667L218.667 186.333L218.333 185.667M240 185L239 189L240 189L240 185M234 186L235 187L234 186z"/>
<path style="fill:#62656b; stroke:none;" d="M281 186L282 187L281 186z"/>
<path style="fill:#337ca6; stroke:none;" d="M217 187L218 188L217 187M237 187L236 189L238 189L237 187z"/>
<path style="fill:#62656b; stroke:none;" d="M282.333 187.667L282.667 188.333L282.333 187.667z"/>
<path style="fill:#337ca6; stroke:none;" d="M216.333 188.667L216.667 189.333L216.333 188.667M238 189L239 190L238 189z"/>
<path style="fill:#62656b; stroke:none;" d="M283.333 189.667L283.667 190.333L283.333 189.667z"/>
<path style="fill:#337ca6; stroke:none;" d="M215.333 190.667L215.667 191.333L215.333 190.667M237.333 190.667L237.667 191.333L237.333 190.667M235 191L236 192L235 191z"/>
<path style="fill:#62656b; stroke:none;" d="M284 191L285 192L284 191z"/>
<path style="fill:#337ca6; stroke:none;" d="M214.333 192.667L214.667 193.333L214.333 192.667M236 192L232 201L233 201L236 192z"/>
<path style="fill:#62656b; stroke:none;" d="M285.333 192.667L285.667 193.333L285.333 192.667z"/>
<path style="fill:#337ca6; stroke:none;" d="M227 193L228 194L227 193M213 194L214 195L213 194M233 194L234 195L233 194z"/>
<path style="fill:#62656b; stroke:none;" d="M286.333 194.667L286.667 195.333L286.333 194.667M212 195L213 196L212 195z"/>
<path style="fill:#337ca6; stroke:none;" d="M212 196L213 197L212 196z"/>
<path style="fill:#84878e; stroke:none;" d="M266 196L267 197L266 196z"/>
<path style="fill:#62656b; stroke:none;" d="M287 196L288 197L287 196z"/>
<path style="fill:#337ca6; stroke:none;" d="M211.333 197.667L211.667 198.333L211.333 197.667z"/>
<path style="fill:#62656b; stroke:none;" d="M234 197L235 198L234 197M288 198L289 199L288 198z"/>
<path style="fill:#337ca6; stroke:none;" d="M210 199L211 200L210 199z"/>
<path style="fill:#62656b; stroke:none;" d="M289.333 199.667L289.667 200.333L289.333 199.667z"/>
<path style="fill:#337ca6; stroke:none;" d="M209 201L210 202L209 201M231 201L226 205L229 208L231 201z"/>
<path style="fill:#62656b; stroke:none;" d="M290.333 201.667L290.667 202.333L290.333 201.667z"/>
<path style="fill:#337ca6; stroke:none;" d="M208.333 202.667L208.667 203.333L208.333 202.667M228 202L229 203L228 202z"/>
<path style="fill:#62656b; stroke:none;" d="M291 203L292 204L291 203z"/>
<path style="fill:#337ca6; stroke:none;" d="M207 204L208 205L207 204z"/>
<path style="fill:#62656b; stroke:none;" d="M230 204L231 205L230 204M292 205L293 206L292 205z"/>
<path style="fill:#337ca6; stroke:none;" d="M206 206L207 207L206 206z"/>
<path style="fill:#62656b; stroke:none;" d="M293.333 206.667L293.667 207.333L293.333 206.667z"/>
<path style="fill:#337ca6; stroke:none;" d="M221 207L222 208L221 207M225 207L226 208L225 207M205 208L206 209L205 208M227 208L226 211L227 211L227 208z"/>
<path style="fill:#62656b; stroke:none;" d="M294.333 208.667L294.667 209.333L294.333 208.667z"/>
<path style="fill:#337ca6; stroke:none;" d="M204.333 209.667L204.667 210.333L204.333 209.667z"/>
<path style="fill:#62656b; stroke:none;" d="M227 209L228 210L227 209z"/>
<path style="fill:#337ca6; stroke:none;" d="M224 210L225 211L224 210M249.667 210.333L250.333 210.667L249.667 210.333z"/>
<path style="fill:#84878e; stroke:none;" d="M274 210L275 211L274 210z"/>
<path style="fill:#62656b; stroke:none;" d="M295 210L296 211L295 210z"/>
<path style="fill:#337ca6; stroke:none;" d="M203.333 211.667L203.667 212.333L203.333 211.667M225.333 211.667L225.667 212.333L225.333 211.667M248.333 211.667L248.667 212.333L248.333 211.667M251.333 211.667L251.667 212.333L251.333 211.667z"/>
<path style="fill:#84878e; stroke:none;" d="M275 212L276 213L275 212z"/>
<path style="fill:#62656b; stroke:none;" d="M296 212L297 213L296 212z"/>
<path style="fill:#337ca6; stroke:none;" d="M202 213L203 214L202 213M223 213L223 216L224 216L225 213L223 213M247.333 213.667L247.667 214.333L247.333 213.667M249 213L250 214L249 213M252.333 213.667L252.667 214.333L252.333 213.667z"/>
<path style="fill:#62656b; stroke:none;" d="M297.333 213.667L297.667 214.333L297.333 213.667M201 214L202 215L201 214M224 214L225 215L224 214z"/>
<path style="fill:#337ca6; stroke:none;" d="M201 215L202 216L201 215M213.667 215.333L214.333 215.667L213.667 215.333M246 215L247 216L246 215M248 215L247 217L248 215M253 215L254 216L253 215z"/>
<path style="fill:#62656b; stroke:none;" d="M298 215L299 216L298 215z"/>
<path style="fill:#337ca6; stroke:none;" d="M200.333 216.667L200.667 217.333L200.333 216.667M220 216L221 217L220 216M222.333 216.667L222.667 217.333L222.333 216.667M245 216L244 220L245 220L245 216z"/>
<path style="fill:#62656b; stroke:none;" d="M254 216L255 217L254 216z"/>
<path style="fill:#337ca6; stroke:none;" d="M254 217L255 218L254 217z"/>
<path style="fill:#62656b; stroke:none;" d="M299 217L300 218L299 217z"/>
<path style="fill:#337ca6; stroke:none;" d="M199.333 218.667L199.667 219.333L199.333 218.667M218 219L220 221L218 225L219 225L222 218L218 219M255.333 218.667L255.667 219.333L255.333 218.667z"/>
<path style="fill:#62656b; stroke:none;" d="M300.333 218.667L300.667 219.333L300.333 218.667z"/>
<path style="fill:#337ca6; stroke:none;" d="M249 219L250 220L249 219M198 220L199 221L198 220M243.333 220.667L243.667 221.333L243.333 220.667M256 220L257 221L256 220z"/>
<path style="fill:#62656b; stroke:none;" d="M301.333 220.667L301.667 221.333L301.333 220.667z"/>
<path style="fill:#337ca6; stroke:none;" d="M197 222L198 223L197 222M242 222L241 225L242 222M257 222L258 223L257 222z"/>
<path style="fill:#62656b; stroke:none;" d="M302 222L303 223L302 222z"/>
<path style="fill:#337ca6; stroke:none;" d="M196.333 223.667L196.667 224.333L196.333 223.667z"/>
<path style="fill:#62656b; stroke:none;" d="M241 223L242 224L241 223z"/>
<path style="fill:#337ca6; stroke:none;" d="M249 223L250 224L249 223M209 224L210 225L209 224M212 224L213 225L212 224M216 224L217 225L216 224M243 224L242 227L243 224M258 224L259 225L258 224z"/>
<path style="fill:#84878e; stroke:none;" d="M282 224L283 225L282 224z"/>
<path style="fill:#337ca6; stroke:none;" d="M195.333 225.667L195.667 226.333L195.333 225.667M217.333 225.667L217.667 226.333L217.333 225.667M240 225L237 232L238 232L242 229L240 225M259.333 225.667L259.667 226.333L259.333 225.667z"/>
<path style="fill:#62656b; stroke:none;" d="M304 226L305 227L304 226z"/>
<path style="fill:#337ca6; stroke:none;" d="M194 227L195 228L194 227M213 228L213 229L217 229L213 228M260 227L260 230L261 230L260 227z"/>
<path style="fill:#62656b; stroke:none;" d="M305.333 227.667L305.667 228.333L305.333 227.667M238 228L239 229L238 228z"/>
<path style="fill:#337ca6; stroke:none;" d="M193 229L194 230L193 229M215 229L214 232L215 229z"/>
<path style="fill:#62656b; stroke:none;" d="M306.333 229.667L306.667 230.333L306.333 229.667z"/>
<path style="fill:#337ca6; stroke:none;" d="M192.333 230.667L192.667 231.333L192.333 230.667M243 230L244 231L243 230M259.333 230.667L259.667 231.333L259.333 230.667M212 231L213 232L212 231M239 231L240 232L239 231M241 231L242 232L241 231M246 231L247 232L246 231z"/>
<path style="fill:#84878e; stroke:none;" d="M286 231L287 232L286 231z"/>
<path style="fill:#62656b; stroke:none;" d="M307 231L308 232L307 231z"/>
<path style="fill:#337ca6; stroke:none;" d="M191.333 232.667L191.667 233.333L191.333 232.667M216 232L216 233L237 233L216 232M258.333 232.667L258.667 233.333L258.333 232.667z"/>
<path style="fill:#62656b; stroke:none;" d="M308.333 232.667L308.667 233.333L308.333 232.667z"/>
<path style="fill:#337ca6; stroke:none;" d="M208 233L209 234L208 233M190 234L191 235L190 234M239 234L240 235L239 234M257.333 234.667L257.667 235.333L257.333 234.667z"/>
<path style="fill:#62656b; stroke:none;" d="M309.333 234.667L309.667 235.333L309.333 234.667z"/>
<path style="fill:#337ca6; stroke:none;" d="M189.333 235.667L189.667 236.333L189.333 235.667M256 236L257 237L256 236z"/>
<path style="fill:#62656b; stroke:none;" d="M310.333 236.667L310.667 237.333L310.333 236.667z"/>
<path style="fill:#337ca6; stroke:none;" d="M188.333 237.667L188.667 238.333L188.333 237.667M255 238L256 239L255 238z"/>
<path style="fill:#62656b; stroke:none;" d="M311 238L312 239L311 238z"/>
<path style="fill:#337ca6; stroke:none;" d="M187 239L188 240L187 239M199 239L200 240L199 239M254 240L255 241L254 240M186 241L187 242L186 241M253 241L254 242L253 241z"/>
<path style="fill:#62656b; stroke:none;" d="M313 241L314 242L313 241z"/>
<path style="fill:#337ca6; stroke:none;" d="M185.333 242.667L185.667 243.333L185.333 242.667z"/>
<path style="fill:#62656b; stroke:none;" d="M253 242L254 243L253 242z"/>
<path style="fill:#337ca6; stroke:none;" d="M252.333 243.667L252.667 244.333L252.333 243.667z"/>
<path style="fill:#62656b; stroke:none;" d="M314 243L315 244L314 243z"/>
<path style="fill:#337ca6; stroke:none;" d="M184 244L185 245L184 244M251 245L252 246L251 245z"/>
<path style="fill:#62656b; stroke:none;" d="M315 245L316 246L315 245z"/>
<path style="fill:#337ca6; stroke:none;" d="M183 246L184 247L183 246M250.333 246.667L250.667 247.333L250.333 246.667z"/>
<path style="fill:#62656b; stroke:none;" d="M316.333 246.667L316.667 247.333L316.333 246.667z"/>
<path style="fill:#337ca6; stroke:none;" d="M182 248L181 251C200.435 256.745 227.691 252 248 252L248 251L207 251L182 251L182 248M249.333 248.667L249.667 249.333L249.333 248.667z"/>
<path style="fill:#62656b; stroke:none;" d="M317.333 248.667L317.667 249.333L317.333 248.667M181 249L182 250L181 249z"/>
<path style="fill:#337ca6; stroke:none;" d="M248 250L249 251L248 250z"/>
<path style="fill:#62656b; stroke:none;" d="M318 250L319 251L318 250M181 251L182 252L181 251M165 279L155 310C160.254 309.828 162.159 308.231 163 303C169.569 303.001 174.102 302.815 176 310L183 310C181.303 300.138 176.384 279.135 165 279M200 279L200 310L206 310L206 297L218 296L217 310L223 310L223 279L217 279L217 291L206 291L206 279L200 279M244 279C244 285.93 241.73 297.742 245.028 303.957C249.229 311.874 262.568 311.923 266.682 303.957C270.079 297.38 268 286.239 268 279L262 279C262 284.439 264.869 303.364 256 303.364C247.131 303.364 250 284.439 250 279L244 279M295 279C295 287.072 298.584 307.596 285 302C282.914 310.909 294.919 312.127 299.258 305.891C303.569 299.695 301 286.287 301 279L295 279M317 310C322.254 309.828 324.159 308.231 325 303L345 310C343.188 302.168 340.055 294.504 337.192 287C336.155 284.283 335.236 280.03 331.882 279.377C328.117 278.643 326.434 282.083 325.349 285.005C322.38 292.999 318.263 301.565 317 310z"/>
<path style="fill:#84878e; stroke:none;" d="M173 287L174 288L173 287M326 287L327 288L326 287z"/>
<path style="fill:#010101; stroke:none;" d="M168 288L165 297L172 297L168 288M330 288L328 297L334 297L330 288z"/>
<path style="fill:#84878e; stroke:none;" d="M332 288L333 289L332 288M204.667 291.333L205.333 291.667L204.667 291.333M217 292L218 293L217 292M323 295L324 296L323 295M338 295L339 296L338 295M217 296L218 297L217 296M324 302L325 303L324 302M158 303L159 304L158 303M261 303L262 304L261 303M297 306L298 307L297 306M160 307L161 308L160 307M251 307L252 308L251 307M156 308L157 309L156 308M255.667 308.333L256.333 308.667L255.667 308.333M291 308L292 309L291 308z"/>
</svg>
